<svg xmlns="http://www.w3.org/2000/svg" viewBox="566 120 64.286 75"><defs><style>.a{fill:#20a8d8;}</style></defs><path class="a" d="M35.143,76A32.145,32.145,0,0,0,67.286,43.857,32.145,32.145,0,0,0,35.143,76ZM12.286,34.036a8.938,8.938,0,0,0,14,7.357l-.071.679a8.929,8.929,0,0,0,17.857,0L44,41.393a8.8,8.8,0,0,0,5.071,1.571A8.908,8.908,0,0,0,52.893,26,8.916,8.916,0,1,0,44,10.607l.071-.679a8.929,8.929,0,0,0-17.857,0l.071.679a8.8,8.8,0,0,0-5.071-1.571A8.908,8.908,0,0,0,17.393,26a8.9,8.9,0,0,0-5.107,8.036ZM35.143,17.071A8.929,8.929,0,1,1,26.214,26,8.932,8.932,0,0,1,35.143,17.071ZM3,43.857A32.145,32.145,0,0,0,35.143,76,32.145,32.145,0,0,0,3,43.857Z" transform="translate(563 119)"/></svg>