<svg xmlns="http://www.w3.org/2000/svg" viewBox="524 80 336.097 111.818">
  <defs>
    <style>
      .cls-1 {
        fill: #030303;
        font-size: 79px;
        font-family: SegoeUI, Segoe UI;
      }

      .cls-2 {
        fill: #20a8d8;
      }
    </style>
  </defs>
  <g id="Logo" transform="translate(-33 23)">
    <text id="Inovasi" class="cls-1" transform="translate(650.097 142)"><tspan x="0" y="0">Inovasi</tspan></text>
    <path id="ic_local_florist_24px" class="cls-2" d="M47.379,104.55A44.382,44.382,0,0,0,91.757,60.172,44.382,44.382,0,0,0,47.379,104.55ZM15.821,46.611A12.341,12.341,0,0,0,35.15,56.769l-.1.937a12.327,12.327,0,0,0,24.655,0l-.1-.937a12.151,12.151,0,0,0,7,2.17,12.3,12.3,0,0,0,5.276-23.422A12.31,12.31,0,1,0,59.608,14.264l.1-.937a12.327,12.327,0,0,0-24.655,0l.1.937a12.151,12.151,0,0,0-7-2.17,12.3,12.3,0,0,0-5.276,23.422,12.284,12.284,0,0,0-7.051,11.095ZM47.379,23.189A12.327,12.327,0,1,1,35.051,35.517,12.332,12.332,0,0,1,47.379,23.189ZM3,60.172A44.382,44.382,0,0,0,47.379,104.55,44.382,44.382,0,0,0,3,60.172Z" transform="translate(554 64.267)"/>
  </g>
</svg>
